<?xml version="1.0" encoding="UTF-8" standalone="no"?><!DOCTYPE svg PUBLIC "-//W3C//DTD SVG 1.1//EN" "http://www.w3.org/Graphics/SVG/1.1/DTD/svg11.dtd"><!-- Generated by graphviz version 2.40.1 (20161225.0304)
 --><!-- Title: G Pages: 1 --><svg xmlns="http://www.w3.org/2000/svg" xmlns:xlink="http://www.w3.org/1999/xlink" width="683pt" height="441pt" viewBox="0.00 0.00 683.16 441.00">
<g id="graph0" class="graph" transform="scale(1 1) rotate(0) translate(4 437)">
<title>G</title>
<polygon fill="#ffffff" stroke="transparent" points="-4,4 -4,-437 679.1616,-437 679.1616,4 -4,4"/>
<!-- Funcionarios -->
<g id="node1" class="node">
<title>Funcionarios</title>
<polygon fill="#add8e6" stroke="#add8e6" points="382.0973,-287.4006 261.7209,-287.4006 261.7209,-144.5994 382.0973,-144.5994 382.0973,-287.4006"/>
<text text-anchor="middle" x="321.9091" y="-270.6" font-family="Times,serif" font-size="14.00" fill="#000000">Funcionarios</text>
<text text-anchor="middle" x="321.9091" y="-253.8" font-family="Times,serif" font-size="14.00" fill="#000000">+ FuncionarioID</text>
<text text-anchor="middle" x="321.9091" y="-237" font-family="Times,serif" font-size="14.00" fill="#000000">+ Nome</text>
<text text-anchor="middle" x="321.9091" y="-220.2" font-family="Times,serif" font-size="14.00" fill="#000000">+ Sobrenome</text>
<text text-anchor="middle" x="321.9091" y="-203.4" font-family="Times,serif" font-size="14.00" fill="#000000">+ DataNascimento</text>
<text text-anchor="middle" x="321.9091" y="-186.6" font-family="Times,serif" font-size="14.00" fill="#000000">+ CargoID</text>
<text text-anchor="middle" x="321.9091" y="-169.8" font-family="Times,serif" font-size="14.00" fill="#000000">+ NivelAcessoID</text>
<text text-anchor="middle" x="321.9091" y="-153" font-family="Times,serif" font-size="14.00" fill="#000000">+ PredecessorID</text>
</g>
<!-- Funcionarios&#45;&gt;Funcionarios -->
<g id="edge4" class="edge">
<title>Funcionarios-&gt;Funcionarios</title>
<path fill="none" stroke="#000000" d="M382.3502,-231.4688C392.9083,-229.4063 400.253,-224.25 400.253,-216 400.253,-210.5859 397.0899,-206.5042 391.9313,-203.7549"/>
<polygon fill="#000000" stroke="#000000" points="392.9443,-200.403 382.3502,-200.5313 390.7119,-207.0375 392.9443,-200.403"/>
<text text-anchor="middle" x="441.0623" y="-211.8" font-family="Times,serif" font-size="14.00" fill="#000000">PredecessorID</text>
</g>
<!-- Cargos -->
<g id="node2" class="node">
<title>Cargos</title>
<polygon fill="#add8e6" stroke="#add8e6" points="95.7275,-75.4014 .0907,-75.4014 .0907,-16.5986 95.7275,-16.5986 95.7275,-75.4014"/>
<text text-anchor="middle" x="47.9091" y="-58.6" font-family="Times,serif" font-size="14.00" fill="#000000">Cargos</text>
<text text-anchor="middle" x="47.9091" y="-41.8" font-family="Times,serif" font-size="14.00" fill="#000000">+ CargoID</text>
<text text-anchor="middle" x="47.9091" y="-25" font-family="Times,serif" font-size="14.00" fill="#000000">+ NomeCargo</text>
</g>
<!-- Funcionarios&#45;&gt;Cargos -->
<g id="edge1" class="edge">
<title>Funcionarios-&gt;Cargos</title>
<path fill="none" stroke="#000000" d="M261.2711,-196.6389C219.4637,-181.5476 163.9052,-157.9248 120.9301,-126.8 104.2627,-114.7286 88.5683,-98.3158 76.0324,-83.4354"/>
<polygon fill="#000000" stroke="#000000" points="78.4569,-80.8725 69.4069,-75.3635 73.0461,-85.3137 78.4569,-80.8725"/>
<text text-anchor="middle" x="146.3986" y="-114.2" font-family="Times,serif" font-size="14.00" fill="#000000">CargoID</text>
</g>
<!-- NiveisAcesso -->
<g id="node3" class="node">
<title>NiveisAcesso</title>
<polygon fill="#add8e6" stroke="#add8e6" points="206.3811,-75.4014 113.4371,-75.4014 113.4371,-16.5986 206.3811,-16.5986 206.3811,-75.4014"/>
<text text-anchor="middle" x="159.9091" y="-58.6" font-family="Times,serif" font-size="14.00" fill="#000000">NiveisAcesso</text>
<text text-anchor="middle" x="159.9091" y="-41.8" font-family="Times,serif" font-size="14.00" fill="#000000">+ NivelID</text>
<text text-anchor="middle" x="159.9091" y="-25" font-family="Times,serif" font-size="14.00" fill="#000000">+ NomeNivel</text>
</g>
<!-- Funcionarios&#45;&gt;NiveisAcesso -->
<g id="edge2" class="edge">
<title>Funcionarios-&gt;NiveisAcesso</title>
<path fill="none" stroke="#000000" d="M261.7006,-189.9208C233.9558,-175.1073 202.785,-154.0283 182.6145,-126.8 173.7506,-114.8345 168.3453,-99.5459 165.0498,-85.4942"/>
<polygon fill="#000000" stroke="#000000" points="168.4466,-84.6361 163.0037,-75.5462 161.5901,-86.0463 168.4466,-84.6361"/>
<text text-anchor="middle" x="226.0564" y="-114.2" font-family="Times,serif" font-size="14.00" fill="#000000">NivelAcessoID</text>
</g>
<!-- Salarios -->
<g id="node4" class="node">
<title>Salarios</title>
<polygon fill="#add8e6" stroke="#add8e6" points="333.7247,-83.7003 224.0935,-83.7003 224.0935,-8.2997 333.7247,-8.2997 333.7247,-83.7003"/>
<text text-anchor="middle" x="278.9091" y="-67" font-family="Times,serif" font-size="14.00" fill="#000000">Salarios</text>
<text text-anchor="middle" x="278.9091" y="-50.2" font-family="Times,serif" font-size="14.00" fill="#000000">+ SalarioID</text>
<text text-anchor="middle" x="278.9091" y="-33.4" font-family="Times,serif" font-size="14.00" fill="#000000">+ FuncionarioID</text>
<text text-anchor="middle" x="278.9091" y="-16.6" font-family="Times,serif" font-size="14.00" fill="#000000">+ Valor</text>
</g>
<!-- Funcionarios&#45;&gt;Salarios -->
<g id="edge3" class="edge">
<title>Funcionarios-&gt;Salarios</title>
<path fill="none" stroke="#000000" d="M280.2248,-144.6627C277.9383,-138.751 275.9731,-132.7562 274.4883,-126.8 271.8873,-116.3665 271.2368,-104.9492 271.6029,-94.069"/>
<polygon fill="#000000" stroke="#000000" points="275.1108,-94.0487 272.235,-83.8516 268.1241,-93.6164 275.1108,-94.0487"/>
<text text-anchor="middle" x="316.1195" y="-114.2" font-family="Times,serif" font-size="14.00" fill="#000000">FuncionarioID</text>
</g>
<!-- Departamentos -->
<g id="node5" class="node">
<title>Departamentos</title>
<polygon fill="#add8e6" stroke="#add8e6" points="492.3129,-75.4014 351.5053,-75.4014 351.5053,-16.5986 492.3129,-16.5986 492.3129,-75.4014"/>
<text text-anchor="middle" x="421.9091" y="-58.6" font-family="Times,serif" font-size="14.00" fill="#000000">Departamentos</text>
<text text-anchor="middle" x="421.9091" y="-41.8" font-family="Times,serif" font-size="14.00" fill="#000000">+ DepartamentoID</text>
<text text-anchor="middle" x="421.9091" y="-25" font-family="Times,serif" font-size="14.00" fill="#000000">+ NomeDepartamento</text>
</g>
<!-- Funcionarios&#45;&gt;Departamentos -->
<g id="edge5" class="edge">
<title>Funcionarios-&gt;Departamentos</title>
<path fill="none" stroke="#000000" d="M364.0283,-144.3974C376.1191,-123.843 388.8407,-102.2164 399.2683,-84.4894"/>
<polygon fill="#000000" stroke="#000000" points="402.4432,-85.9951 404.4967,-75.6011 396.4097,-82.4459 402.4432,-85.9951"/>
<text text-anchor="middle" x="430.9414" y="-114.2" font-family="Times,serif" font-size="14.00" fill="#000000">DepartamentoID</text>
</g>
<!-- LogInsercoesFuncionarios -->
<g id="node6" class="node">
<title>LogInsercoesFuncionarios</title>
<polygon fill="#add8e6" stroke="#add8e6" points="674.9148,-92 510.9034,-92 510.9034,0 674.9148,0 674.9148,-92"/>
<text text-anchor="middle" x="592.9091" y="-75.4" font-family="Times,serif" font-size="14.00" fill="#000000">LogInsercoesFuncionarios</text>
<text text-anchor="middle" x="592.9091" y="-58.6" font-family="Times,serif" font-size="14.00" fill="#000000">+ LogID</text>
<text text-anchor="middle" x="592.9091" y="-41.8" font-family="Times,serif" font-size="14.00" fill="#000000">+ DataHora</text>
<text text-anchor="middle" x="592.9091" y="-25" font-family="Times,serif" font-size="14.00" fill="#000000">+ Usuario</text>
<text text-anchor="middle" x="592.9091" y="-8.2" font-family="Times,serif" font-size="14.00" fill="#000000">+ NomeFuncionario</text>
</g>
<!-- Funcionarios&#45;&gt;LogInsercoesFuncionarios -->
<g id="edge6" class="edge">
<title>Funcionarios-&gt;LogInsercoesFuncionarios</title>
<path fill="none" stroke="#000000" d="M382.1765,-184.6311C412.5909,-168.2436 449.7567,-147.359 481.9091,-126.8 495.7951,-117.921 510.2781,-107.9434 524.0226,-98.1086"/>
<polygon fill="#000000" stroke="#000000" points="526.4093,-100.7026 532.473,-92.0146 522.3148,-95.025 526.4093,-100.7026"/>
</g>
<!-- Salarios&#45;&gt;Funcionarios -->
<g id="edge7" class="edge">
<title>Salarios-&gt;Funcionarios</title>
<path fill="none" stroke="#000000" d="M331.7467,-83.8437C343.5987,-93.5141 353.6509,-103.112 356.9091,-110 360.5913,-117.7843 361.9408,-126.0597 361.6565,-134.4213"/>
<polygon fill="#000000" stroke="#000000" points="358.1474,-134.3164 360.5464,-144.6361 365.1064,-135.0728 358.1474,-134.3164"/>
</g>
<!-- AuditoriaSalario -->
<g id="node7" class="node">
<title>AuditoriaSalario</title>
<polygon fill="#add8e6" stroke="#add8e6" points="379.3819,-432.9002 264.4363,-432.9002 264.4363,-324.2998 379.3819,-324.2998 379.3819,-432.9002"/>
<text text-anchor="middle" x="321.9091" y="-416.4" font-family="Times,serif" font-size="14.00" fill="#000000">AuditoriaSalario</text>
<text text-anchor="middle" x="321.9091" y="-399.6" font-family="Times,serif" font-size="14.00" fill="#000000">+ AuditoriaID</text>
<text text-anchor="middle" x="321.9091" y="-382.8" font-family="Times,serif" font-size="14.00" fill="#000000">+ FuncionarioID</text>
<text text-anchor="middle" x="321.9091" y="-366" font-family="Times,serif" font-size="14.00" fill="#000000">+ DataAlteracao</text>
<text text-anchor="middle" x="321.9091" y="-349.2" font-family="Times,serif" font-size="14.00" fill="#000000">+ SalarioAnterior</text>
<text text-anchor="middle" x="321.9091" y="-332.4" font-family="Times,serif" font-size="14.00" fill="#000000">+ SalarioNovo</text>
</g>
<!-- AuditoriaSalario&#45;&gt;Funcionarios -->
<g id="edge8" class="edge">
<title>AuditoriaSalario-&gt;Funcionarios</title>
<path fill="none" stroke="#000000" d="M321.9091,-324.0042C321.9091,-315.4241 321.9091,-306.3975 321.9091,-297.3698"/>
<polygon fill="#000000" stroke="#000000" points="325.4092,-297.2004 321.9091,-287.2004 318.4092,-297.2005 325.4092,-297.2004"/>
</g>
</g>
</svg>